<svg xmlns="http://www.w3.org/2000/svg" enable-background="new 0 0 24 24" viewBox="0 0 24 24"><path d="M4.61 15.809c-1.697 0-3.305-.936-4.096-2.384C.174 12.798 0 12.107 0 11.404c0-.691.173-1.381.5-1.995C1.313 7.921 2.881 7 4.594 7c1.188 0 2.265.405 3.095 1.141C7.999 8.416 8.027 8.89 7.753 9.2 7.478 9.509 7.005 9.539 6.694 9.264 6.138 8.771 5.415 8.5 4.657 8.5c-1.228 0-2.291.622-2.837 1.622-.211.396-.32.83-.32 1.282 0 .453.111.896.321 1.283.533.978 1.65 1.622 2.789 1.622 1.953 0 2.594-1.076 2.798-1.9H4.77c-.414 0-.75-.336-.75-.75s.336-.75.75-.75h3.48c.414 0 .75.336.75.75C9 13.2 8.075 15.809 4.61 15.809zM10.25 15.564c-.414 0-.75-.336-.75-.75V7.993c0-.414.336-.75.75-.75h2c1.517 0 2.75 1.21 2.75 2.699s-1.233 2.699-2.75 2.699H11v2.173C11 15.229 10.664 15.564 10.25 15.564zM11 11.141h1.25c.689 0 1.25-.538 1.25-1.199s-.561-1.199-1.25-1.199H11V11.141zM18.75 14.827h-2c-.965 0-1.75-.773-1.75-1.725 0-.604.316-1.135.793-1.444C15.373 11.692 15 11.34 15 10.91c0-.951.785-1.725 1.75-1.725h1.001c.965 0 1.75.773 1.75 1.725v3.167C19.5 14.491 19.165 14.827 18.75 14.827zM16.75 12.878c-.138 0-.25.101-.25.225s.112.225.25.225H18v-.449H16.75zM16.75 10.686c-.138 0-.25.101-.25.225 0 .208-.084.396-.221.531.15-.042.308-.063.472-.063H18V10.91c0-.124-.112-.225-.25-.225H16.75zM21.75 13.615c-.271 0-.532-.147-.666-.404l-1.5-2.887c-.191-.368-.048-.82.32-1.011.367-.191.82-.048 1.011.32l1.5 2.887c.191.368.048.82-.32 1.011C21.985 13.588 21.867 13.615 21.75 13.615z"/><path d="M20.526,16c-0.115,0-0.232-0.026-0.342-0.083c-0.369-0.189-0.514-0.641-0.325-1.01L22.583,9.6c0.19-0.369,0.642-0.513,1.01-0.325c0.369,0.189,0.514,0.641,0.325,1.01l-2.724,5.308C21.061,15.852,20.798,16,20.526,16z"/></svg>