<svg xmlns="http://www.w3.org/2000/svg" viewBox="0 0 24 24"><path d="M1.5 21.5a.499.499 0 0 1-.485-.621l.498-1.99.005-.021.497-1.989A.5.5 0 0 1 2.5 16.5h1.272a1.248 1.248 0 0 1 1.213 1.553l-.125.5a1.247 1.247 0 0 1-1.213.947H2.391l-.405 1.621a.5.5 0 0 1-.486.379zm1.141-3h1.007a.249.249 0 0 0 .242-.188l.125-.5a.249.249 0 0 0-.045-.215.245.245 0 0 0-.198-.097h-.881l-.25 1zM6.847 21.5h-.712c-.43 0-.827-.194-1.092-.533a1.38 1.38 0 0 1-.253-1.189l.066-.265A1.335 1.335 0 0 1 6.153 18.5h.712c.43 0 .827.194 1.092.533.265.339.356.772.253 1.189l-.066.266A1.335 1.335 0 0 1 6.847 21.5zm-1.086-1.479a.384.384 0 0 0 .374.479h.712a.334.334 0 0 0 .326-.254l.066-.266a.382.382 0 0 0-.07-.331.382.382 0 0 0-.304-.149h-.712a.334.334 0 0 0-.326.254l-.066.267z"/><path d="M7.5 21.5a.499.499 0 0 1-.485-.621l.5-2a.499.499 0 1 1 .97.242l-.5 2a.498.498 0 0 1-.485.379zM13.5 21.5a.499.499 0 0 1-.485-.621l.498-1.99.005-.021.497-1.989a.5.5 0 0 1 .485-.379h1.272a1.248 1.248 0 0 1 1.213 1.553l-.125.5a1.249 1.249 0 0 1-1.213.947H14.39l-.405 1.621a.498.498 0 0 1-.485.379zm1.141-3h1.007a.249.249 0 0 0 .242-.188l.125-.5a.249.249 0 0 0-.242-.311h-.882l-.25.999zM18.847 21.5h-.712c-.43 0-.827-.194-1.092-.533a1.38 1.38 0 0 1-.253-1.189l.066-.265a1.333 1.333 0 0 1 1.297-1.012h.712c.43 0 .827.194 1.092.533.265.339.356.772.253 1.189l-.066.266a1.336 1.336 0 0 1-1.297 1.011zm-1.086-1.479a.384.384 0 0 0 .374.479h.712a.334.334 0 0 0 .326-.254l.066-.266a.384.384 0 0 0-.374-.479h-.712a.334.334 0 0 0-.326.254l-.066.266z"/><path d="M19.5 21.5a.499.499 0 0 1-.485-.621l.5-2a.496.496 0 0 1 .606-.364.499.499 0 0 1 .364.606l-.5 2a.498.498 0 0 1-.485.379zM10.5 21a.5.5 0 0 1-.416-.223l-1-1.5a.5.5 0 1 1 .832-.554l1 1.5A.5.5 0 0 1 10.5 21z"/><path d="M9.5 22.5a.5.5 0 0 1-.383-.821l2.5-3a.5.5 0 0 1 .767.641l-2.5 3a.498.498 0 0 1-.384.18zM21.5 21.5a.499.499 0 0 1-.485-.621l1-4a.499.499 0 1 1 .97.242l-1 4a.498.498 0 0 1-.485.379zM9.5 13.5h-3a.5.5 0 0 1-.492-.59l2-11A.501.501 0 0 1 8.5 1.5h5.66a2.53 2.53 0 0 1 2.504 2.887l-.245 1.715A3.977 3.977 0 0 1 12.5 9.5h-1.609l-.905 3.621a.502.502 0 0 1-.486.379zm-2.401-1H9.11l.905-3.621A.5.5 0 0 1 10.5 8.5h2a2.973 2.973 0 0 0 2.929-2.54l.245-1.715A1.525 1.525 0 0 0 14.16 2.5H8.917l-1.818 10z"/><path d="M11.5 15.5H9a.503.503 0 0 1-.486-.621l.5-2a.499.499 0 1 1 .97.242L9.641 14.5h1.469l.905-3.621a.5.5 0 0 1 .485-.379h2.343a2.26 2.26 0 0 0 2.195-1.714l.37-1.482c.132-.526.034-1.082-.253-1.451-.126-.161-.342-.353-.655-.353a.5.5 0 0 1 0-1c.559 0 1.071.262 1.443.738.479.615.643 1.478.436 2.308l-.37 1.482a3.258 3.258 0 0 1-3.166 2.472h-1.952l-.905 3.621a.502.502 0 0 1-.486.379z"/></svg>